<svg width="28" height="28" viewBox="0 0 28 28" fill="none" xmlns="http://www.w3.org/2000/svg">
<mask id="path-1-inside-1_186_1342" fill="white">
<path d="M24.4871 7.79848L21.6119 7.77727C20.8353 7.77727 20.2037 7.11563 20.2037 6.30194L20.2016 3.51255C20.2016 1.57575 18.5958 0 16.6223 0H11.3774C9.40382 0 7.79768 1.57575 7.79768 3.51255L7.81642 11.5699C7.81642 13.3532 9.17892 14.83 10.9354 15.0524H16.8182C17.4657 15.1249 17.9855 15.5987 18.0972 16.2063V24.4878C18.0972 25.264 17.4352 25.8956 16.6219 25.8956H11.3774C10.564 25.8956 9.90207 25.264 9.90207 24.4878V21.197C9.70793 19.5353 8.3274 18.2226 6.61447 18.0974H3.51251C2.73596 18.0974 2.10439 17.4358 2.10439 16.6221V11.3779C2.10439 10.5642 2.73596 9.90255 3.51251 9.90255H5.69364V7.79813H3.51251C1.57538 7.79813 0 9.40394 0 11.3779V16.6221C0 18.5961 1.57538 20.2019 3.51251 20.2019H6.52182C7.16717 20.2751 7.68523 20.7472 7.79768 21.3519V24.4874C7.79768 26.4242 9.40382 28 11.3774 28H16.6219C18.5955 28 20.2013 26.4242 20.2013 24.4874V18.6314H20.225L20.2013 16.0521C20.0089 14.3869 18.6252 13.071 16.908 12.9483H11.0938C10.4247 12.815 9.92117 12.2481 9.92117 11.5706L9.90243 3.51326C9.90243 2.73705 10.5644 2.10548 11.3777 2.10548H16.6223C17.4356 2.10548 18.0976 2.73705 18.0976 3.51326L18.0993 6.30265C18.0993 8.27623 19.6754 9.8824 21.6122 9.8824L24.4875 9.90361C25.2637 9.90361 25.8956 10.5652 25.8956 11.3789V16.6232C25.8956 17.4369 25.2637 18.0985 24.4875 18.0985H22.3064V20.2029H24.4875C26.4243 20.2029 28 18.5971 28 16.6232V11.3789C27.9993 9.40429 26.4236 7.79848 24.4871 7.79848Z"/>
</mask>
<path d="M24.4871 7.79848L21.6119 7.77727C20.8353 7.77727 20.2037 7.11563 20.2037 6.30194L20.2016 3.51255C20.2016 1.57575 18.5958 0 16.6223 0H11.3774C9.40382 0 7.79768 1.57575 7.79768 3.51255L7.81642 11.5699C7.81642 13.3532 9.17892 14.83 10.9354 15.0524H16.8182C17.4657 15.1249 17.9855 15.5987 18.0972 16.2063V24.4878C18.0972 25.264 17.4352 25.8956 16.6219 25.8956H11.3774C10.564 25.8956 9.90207 25.264 9.90207 24.4878V21.197C9.70793 19.5353 8.3274 18.2226 6.61447 18.0974H3.51251C2.73596 18.0974 2.10439 17.4358 2.10439 16.6221V11.3779C2.10439 10.5642 2.73596 9.90255 3.51251 9.90255H5.69364V7.79813H3.51251C1.57538 7.79813 0 9.40394 0 11.3779V16.6221C0 18.5961 1.57538 20.2019 3.51251 20.2019H6.52182C7.16717 20.2751 7.68523 20.7472 7.79768 21.3519V24.4874C7.79768 26.4242 9.40382 28 11.3774 28H16.6219C18.5955 28 20.2013 26.4242 20.2013 24.4874V18.6314H20.225L20.2013 16.0521C20.0089 14.3869 18.6252 13.071 16.908 12.9483H11.0938C10.4247 12.815 9.92117 12.2481 9.92117 11.5706L9.90243 3.51326C9.90243 2.73705 10.5644 2.10548 11.3777 2.10548H16.6223C17.4356 2.10548 18.0976 2.73705 18.0976 3.51326L18.0993 6.30265C18.0993 8.27623 19.6754 9.8824 21.6122 9.8824L24.4875 9.90361C25.2637 9.90361 25.8956 10.5652 25.8956 11.3789V16.6232C25.8956 17.4369 25.2637 18.0985 24.4875 18.0985H22.3064V20.2029H24.4875C26.4243 20.2029 28 18.5971 28 16.6232V11.3789C27.9993 9.40429 26.4236 7.79848 24.4871 7.79848Z" fill="#259EF0" stroke="#259EF0" stroke-width="2" mask="url(#path-1-inside-1_186_1342)"/>
</svg>
